<?xml version="1.0" encoding="UTF-8" standalone="no"?>
<!-- Created with Inkscape (http://www.inkscape.org/) -->

<svg
   width="48"
   height="48"
   viewBox="0 0 12.7 12.7"
   version="1.1"
   id="svg5"
   xmlns:xlink="http://www.w3.org/1999/xlink"
   xmlns="http://www.w3.org/2000/svg"
   xmlns:svg="http://www.w3.org/2000/svg">
  <defs
     id="defs2">
    <linearGradient
       id="linearGradient13091">
      <stop
         style="stop-color:#df760b;stop-opacity:1"
         offset="0"
         id="stop13087" />
      <stop
         style="stop-color:#ffebaf;stop-opacity:1"
         offset="1"
         id="stop13089" />
    </linearGradient>
    <linearGradient
       id="linearGradient8494">
      <stop
         style="stop-color:#743c08;stop-opacity:1;"
         offset="0"
         id="stop8490" />
      <stop
         style="stop-color:#f6b61e;stop-opacity:1"
         offset="1"
         id="stop8492" />
    </linearGradient>
    <linearGradient
       xlink:href="#linearGradient8494"
       id="linearGradient8496"
       x1="6.7631507"
       y1="1.9492947"
       x2="1.5892665"
       y2="9.2945547"
       gradientUnits="userSpaceOnUse" />
    <linearGradient
       xlink:href="#linearGradient8494"
       id="linearGradient12833"
       x1="11.914788"
       y1="4.4775758"
       x2="6.59935"
       y2="12.917736"
       gradientUnits="userSpaceOnUse" />
    <linearGradient
       xlink:href="#linearGradient13091"
       id="linearGradient13093"
       x1="2.7796309"
       y1="10.430919"
       x2="2.7511318"
       y2="8.4700108"
       gradientUnits="userSpaceOnUse" />
  </defs>
  <g
     id="layer1">
    <g
       aria-label="Y"
       id="text1904"
       style="font-size:10.5833px;line-height:1.25;fill:url(#linearGradient8496);fill-opacity:1;stroke:none;stroke-width:0.264583;stroke-opacity:1"
       transform="translate(-0.0980025,0.3528618)">
      <path
         d="m 4.4644436,9.3893587 h -0.015503 l -0.015503,-0.00517 v -0.00517 h -0.00517 L 3.2655542,8.7020644 q -0.036173,-0.02067 -0.036173,-0.062012 l -0.00517,-1.3952592 -0.3927397,0.2325432 -0.020671,0.00517 q -0.031006,0 -0.046509,-0.00517 h -0.00517 v -0.00517 L 1.5964107,6.7952101 Q 1.5602373,6.7745396 1.5602373,6.7383662 L 1.5499021,3.1003569 q 0.00517,-0.036173 0.036173,-0.056844 0.6769591,-0.3927396 0.6976296,-0.3927396 0.020671,0 0.6149476,0.346231 l 0.5942771,0.3513986 0.010335,0.00517 v 0.00517 h 0.00517 l 0.00517,0.010335 0.00517,0.020671 0.00517,1.4055945 1.3590859,-0.7854792 -0.010335,-2.8318595 h 0.00517 v -0.010335 q 0,-0.010335 0.00517,-0.015503 0.00517,-0.010335 0.010335,-0.015503 0.010335,-0.00517 0.3565663,-0.20153748 0.346231,-0.20153744 0.3617338,-0.20153744 0.015503,0 0.60978,0.34623102 0.5942771,0.3410633 0.5942771,0.346231 l 0.010335,0.00517 v 0.00517 h 0.00517 l 0.00517,0.010335 0.00517,0.020671 0.00517,0.010335 0.010335,3.6328417 q 0,0.041341 -0.036173,0.062011 L 5.193079,6.1079157 5.2034142,8.9346076 q -0.00517,0.041341 -0.036173,0.062012 Q 4.4851141,9.3893587 4.4644436,9.3893587 Z M 6.1077489,1.7826121 6.6348468,1.4777221 5.6116567,0.88344506 5.0845588,1.188335 Z M 6.0457374,4.609304 6.0405698,1.9066352 5.0173797,1.3071905 5.0225473,4.0098593 Z M 3.5291031,6.1440891 5.9785582,4.7281594 4.9553681,4.1338823 3.5239355,4.9607026 Z M 2.7229534,7.2913023 2.7126181,3.8238247 1.689428,3.2295476 1.6997633,6.6970252 Z M 2.7849649,3.7049693 3.3120628,3.4000793 2.2837051,2.8058022 1.7617748,3.1055246 Z M 4.3972644,9.1981565 4.3869292,6.5730021 3.3689067,7.1672792 v 1.4366003 z m 0.139526,0 0.5219303,-0.3048899 -0.00517,-2.8215243 q 0,-0.041341 0.036173,-0.062012 l 1.6278025,-0.9405081 -0.010335,-3.4674775 -0.5270979,0.30489 0.010335,2.8215242 -0.010335,0.036173 q -0.010335,0.015503 -1.3590859,0.7958145 -1.3435829,0.775144 -1.3642534,0.775144 -0.067179,0 -0.067179,-0.067179 L 3.379242,3.5241023 2.8573117,3.8238247 2.8624793,7.2913023 4.4231026,6.3921352 q 0.015503,-0.010335 0.036173,-0.010335 0.067179,0 0.067179,0.072347 z"
         style="font-family:'3D Isometric';-inkscape-font-specification:'3D Isometric';fill:url(#linearGradient8496);fill-opacity:1;stroke:none;stroke-opacity:1"
         id="path3375" />
    </g>
    <g
       aria-label="I"
       id="text1904-2"
       style="font-size:10.5833px;line-height:1.25;fill:url(#linearGradient12833);fill-opacity:1;stroke-width:0.264583"
       transform="matrix(-1,0,0,1,18.614577,-2.1238803)">
      <path
         d="M 7.9443726,12.871752 H 7.9237021 L 6.7454832,12.189625 q -0.036173,-0.02067 -0.036173,-0.06201 v -0.769977 q 0.00517,-0.03617 0.036173,-0.05684 L 8.3732856,10.360285 8.3629503,6.9031429 7.9650431,7.1356861 q -0.010335,0 -0.015503,0.00517 h -0.041341 q 0,-0.00517 -0.00517,-0.00517 h -0.010335 v -0.00517 L 6.7299803,6.4535593 Q 6.6938069,6.4328888 6.6938069,6.3967154 V 5.6267391 q 0.00517,-0.036173 0.031006,-0.056844 4.0100781,-2.3150968 4.0255811,-2.3150968 0.02067,0 0.614948,0.346231 l 0.594277,0.346231 0.0052,0.00517 h 0.0052 l 0.0052,0.010335 q 0,0.00517 0.0052,0.00517 v 0.010335 q 0.0052,0 0.0052,0.015503 v 0.00517 q 0.0052,0 0.0052,0.7699764 0,0.041341 -0.03617,0.062011 l -1.627802,0.9353405 0.01033,3.4623099 q 0.41341,-0.2428784 0.43408,-0.2428784 0.0155,0 0.60978,0.346231 0.594277,0.3462309 0.599445,0.3462309 v 0.00517 l 0.0155,0.015503 0.0052,0.025838 0.0052,0.010335 v 0.7648084 q 0,0.04134 -0.03617,0.06201 -3.9997431,2.309929 -4.0255812,2.309929 z m 2.3977784,-2.299594 1.452104,-0.8371557 -1.023191,-0.594277 -0.43408,0.248046 z M 7.8616905,6.9496515 7.8565229,6.3502068 6.8333328,5.7507621 V 6.3553744 Z M 7.9288697,6.2261838 11.778752,4.0041042 10.750394,3.4098272 6.900512,5.6319067 Z M 7.8771934,12.68055 7.8720258,12.081105 6.8488357,11.486828 v 0.599445 z M 7.9443726,11.957082 9.4688225,11.078585 8.4404647,10.484308 6.9211825,11.362805 Z M 9.5360016,10.95973 9.5204987,6.2313514 8.5024763,6.8256285 8.5128115,10.360285 Z M 8.0167194,12.68055 11.866601,10.45847 V 9.8590254 l -1.560623,0.8991666 q -0.0052,0.0052 -0.03617,0.0052 -0.06718,0 -0.06718,-0.06718 l -0.0155,-4.9660894 q 0,-0.041341 0.03617,-0.062011 l 1.6278,-0.9405396 -0.0052,-0.5994447 -3.8498822,2.2220795 0.00517,0.5994447 0.3927396,-0.2273756 Q 9.572175,6.0401492 9.5928455,6.0401492 q 0.062012,0 0.072347,0.072347 l 0.010335,4.9712568 q -0.00517,0.03617 -0.031006,0.05684 l -1.6278024,0.940508 z"
         style="font-family:'3D Isometric';-inkscape-font-specification:'3D Isometric';fill:url(#linearGradient12833);fill-opacity:1"
         id="path3396" />
    </g>
    <g
       aria-label="."
       id="text4563"
       style="font-size:10.5833px;line-height:1.25;fill:url(#linearGradient13093);fill-opacity:1;stroke:none;stroke-width:0.264583"
       transform="matrix(-1,0,0,1,9.0782706,0.23637475)">
      <path
         d="m 2.9849251,10.441111 q -0.010335,0 -0.015503,-0.0052 l -0.020671,-0.0052 -1.162716,-0.6769587 q -0.036173,-0.02067 -0.036173,-0.062012 v -0.769912 q 0,-0.036173 0.031006,-0.056844 0.6821268,-0.3927397 0.7027973,-0.3927397 0.02067,0 0.6097799,0.346231 0.5942771,0.3410634 0.5994447,0.346231 v 0.00517 l 0.010335,0.00517 0.00517,0.010335 v 0.00517 h 0.00517 l 0.00517,0.02067 v 0.7751441 q 0,0.036173 -0.031006,0.056843 -0.6821267,0.397908 -0.7027972,0.397908 z m -0.072347,-0.19637 V 9.6452961 L 1.8893882,9.051019 V 9.6504637 Z M 2.9849251,9.5212731 3.5068554,9.2215507 2.4836653,8.622106 1.9565673,8.926996 Z M 3.0572718,10.244741 3.5792021,9.9450184 V 9.3404061 l -0.5270979,0.30489 z"
         style="font-family:'3D Isometric';-inkscape-font-specification:'3D Isometric';fill:url(#linearGradient13093);fill-opacity:1;stroke:none"
         id="path8073" />
    </g>
  </g>
</svg>
